{"asset":{"version":"2.0","generator":"babylon.js glTF exporter for 3ds max 2015 v1.3.9"},"scene":0,"scenes":[{"nodes":[0,1],"extensions":{}}],"nodes":[{"mesh":0,"translation":[-23.6414948,0.0,12.0902386],"rotation":[0.0,0.0,0.0,1.0],"scale":[1.0,1.0,1.0],"name":"Teapot001"},{"translation":[0.0,0.0,0.0],"rotation":[0.0,0.0,0.0,1.0],"scale":[1.0,1.0,1.0],"name":"Default light"}],"meshes":[{"primitives":[{"attributes":{"POSITION":1,"NORMAL":2,"TEXCOORD_0":3},"indices":0,"mode":4,"material":0},{"attributes":{"POSITION":5,"NORMAL":6,"TEXCOORD_0":7},"indices":4,"mode":4,"material":1}],"name":"Teapot001"}],"accessors":[{"bufferView":0,"componentType":5123,"count":3012,"type":"SCALAR","name":"accessorIndices"},{"bufferView":1,"componentType":5126,"count":3012,"max":[64.42931,59.202137,37.5886536],"min":[-56.382988,0.0,-37.5886574],"type":"VEC3","name":"accessorPositions"},{"bufferView":1,"byteOffset":36144,"componentType":5126,"count":3012,"type":"VEC3","name":"accessorNormals"},{"bufferView":2,"componentType":5126,"count":3012,"type":"VEC2","name":"accessorUVs"},{"bufferView":0,"byteOffset":6024,"componentType":5123,"count":60,"type":"SCALAR","name":"accessorIndices"},{"bufferView":1,"byteOffset":72288,"componentType":5126,"count":60,"max":[31.9665089,45.10639,36.32823],"min":[-34.6520424,23.50025,0.0],"type":"VEC3","name":"accessorPositions"},{"bufferView":1,"byteOffset":73008,"componentType":5126,"count":60,"type":"VEC3","name":"accessorNormals"},{"bufferView":2,"byteOffset":24096,"componentType":5126,"count":60,"type":"VEC2","name":"accessorUVs"}],"bufferViews":[{"buffer":0,"byteLength":6144,"name":"bufferViewScalar"},{"buffer":0,"byteOffset":6144,"byteLength":73728,"byteStride":12,"name":"bufferViewFloatVec3"},{"buffer":0,"byteOffset":79872,"byteLength":24576,"byteStride":8,"name":"bufferViewFloatVec2"}],"buffers":[{"uri":"teapot.bin","byteLength":104448}],"materials":[{"pbrMetallicRoughness":{"baseColorFactor":[0.0,0.07352942,1.0,1.0],"metallicFactor":0.0,"roughnessFactor":0.9},"emissiveFactor":[0.0,0.0,0.0],"alphaMode":"OPAQUE","name":"Material #36"},{"pbrMetallicRoughness":{"baseColorFactor":[1.0,0.0,0.0,1.0],"metallicFactor":0.0,"roughnessFactor":0.9},"emissiveFactor":[0.0,0.0,0.0],"alphaMode":"OPAQUE","name":"Material #37"}]}